<svg width="97" height="97" viewBox="0 0 97 97" fill="none" xmlns="http://www.w3.org/2000/svg">
<g clip-path="url(#clip0)">
<path d="M49.7736 72.7477C36.5564 72.7477 25.8077 61.887 25.8077 48.5342C25.8077 35.1815 36.5585 24.3207 49.7736 24.3207C62.9867 24.3207 73.7354 35.1835 73.7354 48.5342C73.7354 61.8891 62.9846 72.7477 49.7736 72.7477Z" fill="white"/>
<path d="M49.7736 15.1049C48.4476 15.1049 47.3746 14.0186 47.3746 12.6829V2.59103C47.3746 1.25328 48.4456 0.169067 49.7736 0.169067C51.0955 0.169067 52.1686 1.25122 52.1686 2.59103V12.6829C52.1686 14.0186 51.0955 15.1049 49.7736 15.1049Z" fill="white"/>
<path d="M73.6232 27.4126C73.0092 27.4126 72.3952 27.1776 71.93 26.7035C70.9937 25.7595 70.9937 24.228 71.93 23.2798L80.5164 14.6019C81.4528 13.6599 82.9664 13.6599 83.9028 14.6019C84.8392 15.546 84.8392 17.0816 83.9028 18.0298L75.3164 26.7035C74.8513 27.1776 74.2373 27.4126 73.6232 27.4126Z" fill="white"/>
<path d="M22.0969 27.4126C21.487 27.4126 20.8729 27.1776 20.4037 26.7035L11.8174 18.0298C10.881 17.0816 10.881 15.5481 11.8174 14.6019C12.7537 13.6599 14.2674 13.6599 15.2038 14.6019L23.7942 23.2798C24.7306 24.228 24.7306 25.7574 23.7942 26.7035C23.325 27.1776 22.711 27.4126 22.0969 27.4126Z" fill="white"/>
<path d="M47.8601 96.5263C46.5382 96.5263 45.4651 95.4421 45.4651 94.1044V84.0145C45.4651 82.6809 46.5361 81.5926 47.8601 81.5926C49.184 81.5926 50.2591 82.6788 50.2591 84.0145V94.1064C50.2591 95.4421 49.184 96.5263 47.8601 96.5263Z" fill="white"/>
<path d="M15.4241 82.8025C14.81 82.8025 14.196 82.5675 13.7268 82.0935C12.7904 81.1494 12.7904 79.6158 13.7268 78.6697L22.3132 69.9939C23.2495 69.0499 24.7673 69.0499 25.7036 69.9939C26.64 70.9359 26.64 72.4715 25.7036 73.4177L17.1173 82.0935C16.6481 82.5675 16.0381 82.8025 15.4241 82.8025Z" fill="white"/>
<path d="M84.1231 82.8025C83.5091 82.8025 82.895 82.5675 82.4258 82.0935L73.8395 73.4177C72.9031 72.4715 72.9031 70.94 73.8395 69.9939C74.7759 69.0499 76.2936 69.0499 77.23 69.9939L85.8163 78.6697C86.7527 79.6158 86.7527 81.1473 85.8163 82.0935C85.3451 82.5675 84.7372 82.8025 84.1231 82.8025Z" fill="white"/>
<path d="M13.5106 50.9562H2.72508C1.40316 50.9562 0.33012 49.8741 0.33012 48.5342C0.33012 47.1944 1.40112 46.1123 2.72508 46.1123H13.5106C14.8325 46.1123 15.9096 47.1944 15.9096 48.5342C15.9096 49.8741 14.8345 50.9562 13.5106 50.9562Z" fill="white"/>
<path d="M94.9922 50.9562H82.2096C80.8877 50.9562 79.8146 49.8741 79.8146 48.5342C79.8146 47.1944 80.8856 46.1123 82.2096 46.1123H94.9922C96.3141 46.1123 97.3872 47.1944 97.3872 48.5342C97.3872 49.8741 96.3141 50.9562 94.9922 50.9562Z" fill="white"/>
</g>
<defs>
<clipPath id="clip0">
<rect width="97" height="97" fill="white"/>
</clipPath>
</defs>
</svg>
