<svg width="88" height="88" viewBox="0 0 88 88" fill="none" xmlns="http://www.w3.org/2000/svg">
<path d="M47.8794 83.7616C27.1447 83.7616 10.2747 66.8891 10.2747 46.1544C10.2747 26.6981 24.8595 10.6103 44.2073 8.73231C45.4461 8.60398 46.6183 9.29497 47.1292 10.4203C47.64 11.5506 47.3809 12.8783 46.4777 13.7346C41.7592 18.1742 39.1655 24.1661 39.1655 30.6022C39.1655 43.388 49.5674 53.7923 62.3532 53.7923C69.3273 53.7923 75.8645 50.6903 80.2943 45.2882C81.084 44.3307 82.3969 43.9877 83.5518 44.4171C84.7142 44.8465 85.4693 45.9669 85.4372 47.2082C84.8696 67.7035 68.3698 83.7616 47.8794 83.7616Z" fill="white"/>
</svg>
