<svg width="68" height="62" viewBox="0 0 68 62" fill="none" xmlns="http://www.w3.org/2000/svg">
<path d="M24.236 7.245C24.885 7.245 25.411 6.72 25.411 6.07V1.175C25.411 0.526999 24.886 0 24.236 0C23.588 0 23.061 0.525999 23.061 1.175V6.07C23.061 6.72 23.587 7.245 24.236 7.245Z" fill="white"/>
<path d="M35.928 13.218C36.229 13.218 36.53 13.103 36.758 12.873L40.967 8.66299C41.426 8.20399 41.426 7.461 40.967 7.002C40.509 6.543 39.766 6.543 39.307 7.002L35.098 11.212C34.639 11.671 34.639 12.415 35.098 12.873C35.326 13.102 35.627 13.218 35.928 13.218Z" fill="white"/>
<path d="M9.83999 12.873C10.07 13.102 10.37 13.218 10.671 13.218C10.972 13.218 11.272 13.103 11.502 12.873C11.961 12.415 11.961 11.671 11.502 11.212L7.29199 7.002C6.83299 6.543 6.08999 6.543 5.63099 7.002C5.17199 7.461 5.17199 8.20399 5.63099 8.66299L9.83999 12.873Z" fill="white"/>
<path d="M7.636 23.463C7.636 22.816 7.11 22.288 6.461 22.288H1.175C0.527001 22.288 0 22.815 0 23.463C0 24.111 0.526001 24.638 1.175 24.638H6.461C7.11 24.638 7.636 24.111 7.636 23.463Z" fill="white"/>
<path d="M49.183 18.393C45.848 18.393 42.602 19.286 39.741 20.984C38.323 19.949 36.718 19.206 35.026 18.788C32.839 13.733 27.309 10.755 21.733 11.976C15.405 13.363 11.385 19.639 12.772 25.966C12.868 26.402 12.998 26.82 13.141 27.231C6.71097 28.238 1.77197 33.798 1.77197 40.504C1.77197 47.922 7.80697 53.956 15.224 53.956C17.269 53.956 19.276 53.488 21.108 52.594C23.059 57.787 28.034 61.299 33.684 61.299C38.328 61.299 42.608 58.914 45.064 55.021C46.436 55.335 47.818 55.497 49.183 55.497C59.412 55.497 67.735 47.175 67.735 36.945C67.735 26.715 59.412 18.393 49.183 18.393ZM22.235 14.271C26.187 13.405 30.104 15.182 32.164 18.407C32.045 18.405 31.927 18.393 31.808 18.393C25.923 18.393 20.847 22.122 19.045 27.61C17.922 27.275 16.765 27.098 15.591 27.066C15.376 26.554 15.191 26.025 15.068 25.462C13.957 20.402 17.174 15.381 22.235 14.271Z" fill="white"/>
</svg>
