<svg width="74" height="56" viewBox="0 0 74 56" fill="none" xmlns="http://www.w3.org/2000/svg">
<path d="M73.813 16.065C73.827 15.563 73.521 15.109 73.049 14.932C72.581 14.757 72.049 14.899 71.73 15.287C69.935 17.475 67.286 18.73 64.46 18.73C59.278 18.73 55.062 14.515 55.062 9.333C55.062 6.725 56.115 4.297 58.025 2.498C58.391 2.153 58.498 1.61401 58.29 1.15801C58.082 0.699005 57.608 0.424005 57.107 0.474005C49.586 1.20301 43.856 7.23601 43.4 14.685C41.378 13.486 39.022 12.804 36.516 12.804C36.397 12.804 36.279 12.816 36.16 12.819C35.19 12.845 34.231 12.969 33.298 13.199C31.606 13.618 30 14.36 28.583 15.396C25.722 13.698 22.476 12.804 19.141 12.804C8.91199 12.804 0.588989 21.126 0.588989 31.357C0.588989 41.586 8.91199 49.907 19.141 49.907C20.506 49.907 21.887 49.748 23.26 49.432C25.717 53.327 29.996 55.71 34.64 55.71C40.289 55.71 45.265 52.198 47.216 47.004C49.047 47.9 51.055 48.368 53.1 48.368C60.517 48.368 66.552 42.334 66.552 34.916C66.552 32.916 66.105 31.023 65.319 29.318C70.239 26.916 73.649 21.948 73.813 16.065ZM64.149 27.278C62.094 24.323 58.89 22.223 55.183 21.643C54.502 21.538 53.81 21.465 53.1 21.465C52.977 21.465 52.856 21.475 52.733 21.478C51.559 21.51 50.402 21.687 49.279 22.022C48.566 19.849 47.334 17.959 45.746 16.459C45.729 16.187 45.704 15.916 45.704 15.638C45.704 10.044 49.222 5.263 54.268 3.487C53.252 5.245 52.711 7.242 52.711 9.334C52.711 15.813 57.981 21.081 64.459 21.081C66.826 21.081 69.095 20.377 71.009 19.089C70.017 22.735 67.482 25.697 64.149 27.278Z" fill="white"/>
</svg>
