<svg width="67" height="44" viewBox="0 0 67 44" fill="none" xmlns="http://www.w3.org/2000/svg">
<path d="M32.665 43.544C27.016 43.544 22.04 40.033 20.089 34.838C18.257 35.734 16.25 36.202 14.205 36.202C6.78799 36.202 0.752991 30.168 0.752991 22.75C0.752991 15.332 6.78799 9.298 14.205 9.298C15.505 9.298 16.785 9.486 18.025 9.855C19.827 4.368 24.902 0.638 30.788 0.638C33.642 0.638 36.427 1.553 38.722 3.23C41.583 1.532 44.829 0.638 48.164 0.638C58.393 0.638 66.716 8.961 66.716 19.191C66.716 29.42 58.394 37.741 48.164 37.741C46.799 37.741 45.418 37.582 44.045 37.266C41.588 41.16 37.309 43.544 32.665 43.544Z" fill="white"/>
</svg>
