<svg width="69" height="59" viewBox="0 0 69 59" fill="none" xmlns="http://www.w3.org/2000/svg">
<path d="M68.381 13.222C68.381 6.086 62.576 0.281998 55.441 0.281998C53.269 0.281998 51.13 0.830998 49.229 1.875C47.67 0.843998 45.811 0.281998 43.945 0.281998C40.015 0.281998 36.529 2.654 35.084 6.247C34.393 6.09 33.686 6.011 32.974 6.011C27.699 6.011 23.408 10.303 23.408 15.577C23.408 16.272 23.487 16.948 23.628 17.602C21.036 19.226 19.027 21.725 18.028 24.767C16.788 24.398 15.508 24.212 14.208 24.212C6.79098 24.212 0.755981 30.246 0.755981 37.664C0.755981 45.082 6.79098 51.116 14.208 51.116C16.253 51.116 18.261 50.648 20.092 49.751C22.043 54.945 27.018 58.458 32.668 58.458C37.312 58.458 41.591 56.074 44.048 52.178C45.421 52.495 46.801 52.655 48.167 52.655C58.396 52.655 66.719 44.332 66.719 34.103C66.719 30.14 65.459 26.471 63.333 23.453C66.396 21.084 68.381 17.384 68.381 13.222Z" fill="white"/>
</svg>
