<svg width="94" height="90" viewBox="0 0 94 90" fill="none" xmlns="http://www.w3.org/2000/svg">
<path d="M26.7069 70.3455C26.7069 72.9751 24.575 75.107 21.9453 75.107C19.3157 75.107 17.1838 72.9751 17.1838 70.3455C17.1838 67.7158 21.9453 60.6151 21.9453 60.6151C21.9453 60.6151 26.7069 67.7158 26.7069 70.3455Z" fill="white"/>
<path d="M47.204 84.8375C47.204 87.4685 45.0721 89.6004 42.4425 89.6004C39.8114 89.6004 37.6809 87.4685 37.6809 84.8375C37.6809 82.2078 42.4425 75.107 42.4425 75.107C42.4425 75.107 47.204 82.2078 47.204 84.8375Z" fill="white"/>
<path d="M66.6677 79.87C66.6677 82.4997 64.5358 84.6316 61.9062 84.6316C59.2765 84.6316 57.1446 82.4997 57.1446 79.87C57.1446 77.2404 61.9062 70.1382 61.9062 70.1382C61.9062 70.1382 66.6677 77.2404 66.6677 79.87Z" fill="white"/>
<path d="M45.2822 60.6151C37.3171 60.6151 30.301 55.6617 27.5501 48.3368C24.967 49.6001 22.1371 50.2614 19.2536 50.2614C8.79567 50.2614 0.286316 41.7521 0.286316 31.2941C0.286316 20.8347 8.79426 12.3268 19.2536 12.3268C21.0866 12.3268 22.8914 12.5905 24.6398 13.1108C27.1807 5.37549 34.3364 0.116188 42.6357 0.116188C46.6598 0.116188 50.5867 1.40493 53.8226 3.77091C57.8566 1.37673 62.4349 0.116188 67.1372 0.116188C81.5601 0.116188 93.2942 11.8502 93.2942 26.2745C93.2942 40.6988 81.5601 52.4328 67.1372 52.4328C65.2126 52.4328 63.264 52.2072 61.3294 51.7603C57.8651 57.2522 51.8303 60.6151 45.2822 60.6151Z" fill="white"/>
</svg>
