<svg width="94" height="109" viewBox="0 0 94 109" fill="none" xmlns="http://www.w3.org/2000/svg">
<path d="M33.5027 10.0151C34.3998 10.0151 35.1269 9.28941 35.1269 8.39088V1.62426C35.1269 0.728498 34.4012 0 33.5027 0C32.6069 0 31.8784 0.727116 31.8784 1.62426V8.39088C31.8784 9.28941 32.6055 10.0151 33.5027 10.0151Z" fill="white"/>
<path d="M49.6652 18.272C50.0813 18.272 50.4973 18.113 50.8125 17.795L56.6308 11.9753C57.2653 11.3408 57.2653 10.3137 56.6308 9.67924C55.9977 9.04474 54.9706 9.04474 54.3361 9.67924L48.5178 15.499C47.8833 16.1335 47.8833 17.1619 48.5178 17.795C48.833 18.1116 49.2491 18.272 49.6652 18.272Z" fill="white"/>
<path d="M13.6024 17.795C13.9203 18.1116 14.335 18.272 14.7511 18.272C15.1672 18.272 15.5819 18.113 15.8998 17.795C16.5343 17.1619 16.5343 16.1335 15.8998 15.499L10.0801 9.67924C9.44563 9.04474 8.41854 9.04474 7.78404 9.67924C7.14954 10.3137 7.14954 11.3408 7.78404 11.9753L13.6024 17.795Z" fill="white"/>
<path d="M10.5556 32.4341C10.5556 31.5398 9.82853 30.8099 8.93138 30.8099H1.62426C0.728501 30.8099 0 31.5384 0 32.4341C0 33.3299 0.727119 34.0584 1.62426 34.0584H8.93138C9.82853 34.0584 10.5556 33.3299 10.5556 32.4341Z" fill="white"/>
<path d="M67.9882 25.4256C63.3781 25.4256 58.891 26.66 54.9361 29.0073C52.9759 27.5765 50.7572 26.5494 48.4183 25.9716C45.3951 18.9838 37.7507 14.8672 30.0427 16.555C21.2951 18.4723 15.7381 27.148 17.6554 35.8941C17.7881 36.4968 17.9678 37.0747 18.1655 37.6428C9.2769 39.0348 2.44946 46.7207 2.44946 55.9908C2.44946 66.2451 10.792 74.5862 21.0449 74.5862C23.8718 74.5862 26.6462 73.9393 29.1787 72.7034C31.8757 79.882 38.7529 84.7368 46.5631 84.7368C52.9828 84.7368 58.8993 81.4399 62.2943 76.0584C64.1909 76.4925 66.1013 76.7164 67.9882 76.7164C82.1283 76.7164 93.6336 65.2125 93.6336 51.071C93.6336 36.9295 82.1283 25.4256 67.9882 25.4256ZM30.7366 19.7275C36.1997 18.5304 41.6143 20.9868 44.462 25.4449C44.2975 25.4422 44.1344 25.4256 43.9699 25.4256C35.8347 25.4256 28.8179 30.5804 26.3269 38.1667C24.7745 37.7036 23.1751 37.459 21.5522 37.4147C21.255 36.707 20.9993 35.9757 20.8293 35.1974C19.2935 28.2027 23.7405 21.2619 30.7366 19.7275Z" fill="white"/>
<path d="M31.5231 89.7304C31.5231 92.36 29.3912 94.4919 26.7615 94.4919C24.1319 94.4919 22 92.36 22 89.7304C22 87.1007 26.7615 80 26.7615 80C26.7615 80 31.5231 87.1007 31.5231 89.7304Z" fill="white"/>
<path d="M52.0202 104.222C52.0202 106.853 49.8883 108.985 47.2587 108.985C44.6276 108.985 42.4971 106.853 42.4971 104.222C42.4971 101.593 47.2587 94.4919 47.2587 94.4919C47.2587 94.4919 52.0202 101.593 52.0202 104.222Z" fill="white"/>
<path d="M71.4839 99.2549C71.4839 101.885 69.352 104.016 66.7224 104.016C64.0927 104.016 61.9608 101.885 61.9608 99.2549C61.9608 96.6253 66.7224 89.5231 66.7224 89.5231C66.7224 89.5231 71.4839 96.6253 71.4839 99.2549Z" fill="white"/>
</svg>
