<svg width="94" height="95" viewBox="0 0 94 95" fill="none" xmlns="http://www.w3.org/2000/svg">
<path d="M60.9608 79.7304C60.9608 82.36 63.0927 84.4919 65.7224 84.4919C68.352 84.4919 70.4839 82.36 70.4839 79.7304C70.4839 77.1007 65.7224 70 65.7224 70C65.7224 70 60.9608 77.1007 60.9608 79.7304Z" fill="white"/>
<path d="M40.4637 90.2224C40.4637 92.8534 42.5956 94.9853 45.2252 94.9853C47.8563 94.9853 49.9868 92.8534 49.9868 90.2224C49.9868 87.5927 45.2252 80.4919 45.2252 80.4919C45.2252 80.4919 40.4637 87.5927 40.4637 90.2224Z" fill="white"/>
<path d="M21 85.2549C21 87.8846 23.1319 90.0165 25.7615 90.0165C28.3912 90.0165 30.5231 87.8846 30.5231 85.2549C30.5231 82.6253 25.7615 75.5231 25.7615 75.5231C25.7615 75.5231 21 82.6253 21 85.2549Z" fill="white"/>
<path d="M93.7625 20.4069C93.7802 19.7692 93.3915 19.1925 92.792 18.9677C92.1975 18.7454 91.5217 18.9257 91.1165 19.4186C88.8363 22.198 85.4714 23.7922 81.8816 23.7922C75.2991 23.7922 69.9436 18.438 69.9436 11.8554C69.9436 8.54256 71.2812 5.45834 73.7074 3.17313C74.1723 2.73489 74.3083 2.05022 74.044 1.47098C73.7798 0.887919 73.1777 0.538595 72.5413 0.602108C62.9876 1.52814 55.709 9.19168 55.1297 18.6539C52.5612 17.1309 49.5685 16.2645 46.3852 16.2645C46.234 16.2645 46.0841 16.2798 45.933 16.2836C44.7008 16.3166 43.4826 16.4741 42.2975 16.7663C40.1482 17.2985 38.1081 18.2411 36.3081 19.5571C32.6739 17.4002 28.5506 16.2645 24.3142 16.2645C11.3206 16.2645 0.748169 26.8357 0.748169 39.8319C0.748169 52.8255 11.3206 63.3954 24.3142 63.3954C26.0482 63.3954 27.8024 63.1934 29.5465 62.792C32.6675 67.7397 38.103 70.7667 44.0022 70.7667C51.1779 70.7667 57.4988 66.3056 59.9771 59.7078C62.3029 60.8459 64.8536 61.4404 67.4513 61.4404C76.8729 61.4404 84.539 53.7756 84.539 44.3527C84.539 41.8122 83.9712 39.4076 82.9728 37.2418C89.2225 34.1906 93.5541 27.8799 93.7625 20.4069ZM81.4866 34.6504C78.8762 30.8968 74.8062 28.2292 70.0973 27.4925C69.2323 27.3591 68.3532 27.2663 67.4513 27.2663C67.2951 27.2663 67.1414 27.279 66.9852 27.2829C65.4939 27.3235 64.0242 27.5483 62.5976 27.9739C61.6919 25.2136 60.127 22.8128 58.1098 20.9074C58.0882 20.5619 58.0564 20.2176 58.0564 19.8645C58.0564 12.7586 62.5252 6.68543 68.935 4.42943C67.6444 6.66256 66.9572 9.19929 66.9572 11.8567C66.9572 20.0868 73.6515 26.7786 81.8803 26.7786C84.8871 26.7786 87.7693 25.8843 90.2006 24.2482C88.9405 28.8796 85.7204 32.6421 81.4866 34.6504Z" fill="white"/>
</svg>
