<svg width="67" height="62" viewBox="0 0 67 62" fill="none" xmlns="http://www.w3.org/2000/svg">
<path d="M47.697 0.584991C44.362 0.584991 41.115 1.47799 38.254 3.17499C35.959 1.49999 33.174 0.584991 30.32 0.584991C24.435 0.584991 19.359 4.31399 17.557 9.80199C16.317 9.43299 15.037 9.24399 13.737 9.24399C6.31997 9.24399 0.284973 15.278 0.284973 22.696C0.284973 27.363 2.67397 31.476 6.28997 33.89C8.42397 35.315 10.984 36.148 13.736 36.148C15.781 36.148 17.788 35.68 19.62 34.785C19.726 35.067 19.846 35.343 19.97 35.616C21.448 38.869 24.147 41.363 27.425 42.609C27.625 42.685 27.832 42.745 28.035 42.811L24.602 48.673L28.42 51.316L24.602 61.595L35.468 51.977L30.035 48.673L35.468 43.059L35.466 43.05C38.022 42.409 40.332 41.041 42.112 39.091C42.645 38.508 43.147 37.891 43.576 37.212C43.897 37.285 44.22 37.322 44.541 37.378C45.594 37.563 46.649 37.687 47.695 37.687C57.924 37.687 66.246 29.366 66.246 19.136C66.246 8.90599 57.926 0.584991 47.697 0.584991Z" fill="white"/>
</svg>
