<svg width="66" height="68" viewBox="0 0 66 68" fill="none" xmlns="http://www.w3.org/2000/svg">
<path d="M11.855 53.835C13.8012 53.835 15.379 52.2573 15.379 50.311C15.379 48.3648 13.8012 46.787 11.855 46.787C9.90874 46.787 8.33099 48.3648 8.33099 50.311C8.33099 52.2573 9.90874 53.835 11.855 53.835Z" fill="white"/>
<path d="M18.903 67.638C20.8493 67.638 22.427 66.0602 22.427 64.114C22.427 62.1677 20.8493 60.59 18.903 60.59C16.9568 60.59 15.379 62.1677 15.379 64.114C15.379 66.0602 16.9568 67.638 18.903 67.638Z" fill="white"/>
<path d="M29.476 57.359C31.4223 57.359 33 55.7813 33 53.835C33 51.8888 31.4223 50.311 29.476 50.311C27.5298 50.311 25.952 51.8888 25.952 53.835C25.952 55.7813 27.5298 57.359 29.476 57.359Z" fill="white"/>
<path d="M47.293 53.835C49.2393 53.835 50.817 52.2573 50.817 50.311C50.817 48.3648 49.2393 46.787 47.293 46.787C45.3468 46.787 43.769 48.3648 43.769 50.311C43.769 52.2573 45.3468 53.835 47.293 53.835Z" fill="white"/>
<path d="M40.2449 67.638C42.1912 67.638 43.7689 66.0602 43.7689 64.114C43.7689 62.1677 42.1912 60.59 40.2449 60.59C38.2987 60.59 36.7209 62.1677 36.7209 64.114C36.7209 66.0602 38.2987 67.638 40.2449 67.638Z" fill="white"/>
<path d="M31.931 43.45C26.282 43.45 21.306 39.937 19.356 34.743C17.524 35.639 15.516 36.108 13.471 36.108C6.05402 36.108 0.0200195 30.073 0.0200195 22.656C0.0200195 15.238 6.05402 9.20401 13.471 9.20401C14.772 9.20401 16.051 9.39001 17.291 9.75901C19.093 4.27401 24.168 0.544006 30.054 0.544006C32.908 0.544006 35.693 1.45801 37.988 3.13601C40.849 1.43801 44.096 0.544006 47.43 0.544006C57.659 0.544006 65.982 8.86501 65.982 19.095C65.982 29.325 57.66 37.647 47.43 37.647C46.065 37.647 44.684 37.488 43.311 37.171C40.854 41.066 36.574 43.45 31.931 43.45Z" fill="white"/>
</svg>
