<svg width="66" height="30" viewBox="0 0 66 30" fill="none" xmlns="http://www.w3.org/2000/svg">
<path d="M18.249 10.855H4.01899C3.82599 10.855 3.66699 10.329 3.66699 9.68C3.66699 9.031 3.82499 8.505 4.01899 8.505H18.249C18.444 8.505 18.601 9.031 18.601 9.68C18.601 10.329 18.444 10.855 18.249 10.855Z" fill="white"/>
<path d="M17.651 17.904H0.483021C0.250021 17.904 0.059021 17.377 0.059021 16.729C0.059021 16.081 0.249021 15.554 0.483021 15.554H17.651C17.885 15.554 18.075 16.08 18.075 16.729C18.075 17.376 17.886 17.904 17.651 17.904Z" fill="white"/>
<path d="M17.737 25.246H4.00699C3.81899 25.246 3.66699 24.72 3.66699 24.071C3.66699 23.422 3.81899 22.896 4.00699 22.896H17.737C17.924 22.896 18.075 23.422 18.075 24.071C18.075 24.72 17.924 25.246 17.737 25.246Z" fill="white"/>
<path d="M52.735 0.230988C50.563 0.230988 48.424 0.781989 46.522 1.82599C44.964 0.794989 43.104 0.230988 41.239 0.230988C37.308 0.230988 33.823 2.60299 32.378 6.19599C31.687 6.04099 30.98 5.95999 30.268 5.95999C24.994 5.95999 20.703 10.253 20.703 15.528C20.703 20.802 24.994 25.093 30.268 25.093C31.474 25.093 32.686 24.857 33.81 24.407C35.359 27.749 38.759 29.95 42.482 29.95C45.628 29.95 48.524 28.435 50.315 25.875C51.125 26.031 51.936 26.111 52.736 26.111C59.872 26.111 65.676 20.306 65.676 13.171C65.676 6.03599 59.871 0.230988 52.735 0.230988Z" fill="white"/>
</svg>
